<svg xmlns="http://www.w3.org/2000/svg" width="80" height="78.843" viewBox="0 0 80 78.843"><defs><style>.a{fill:#007c4f;}</style></defs><g transform="translate(-254 -134.276)"><path d="M333.934,268.05H279.41a.616.616,0,0,1,0-1.231h54.527a6.259,6.259,0,0,0,6.252-6.252V207.206a.615.615,0,1,1,1.23,0v53.361a7.491,7.491,0,0,1-7.485,7.483Zm0,0" transform="translate(-18.834 -54.931)"/><path d="M260.573,213.119A6.58,6.58,0,0,1,254,206.546V195.79a.615.615,0,0,1,.615-.615h11.3V140.651a6.386,6.386,0,0,1,6.378-6.375H324.7a9.312,9.312,0,0,1,9.3,9.3v8.688a.615.615,0,0,1-.615.615l-55.331.034a.615.615,0,0,1-.615-.615v-11.65a5.147,5.147,0,0,0-10.293,0v65.9a6.581,6.581,0,0,1-6.572,6.573Zm-5.343-16.713v10.141a5.342,5.342,0,1,0,10.684,0V196.406Zm20.824-60.9a6.376,6.376,0,0,1,2.616,5.147v11.032l54.1-.033V143.58a8.083,8.083,0,0,0-8.073-8.073Zm0,0"/><path d="M377.928,288.139H335.59a.615.615,0,1,1,0-1.23h42.338a.615.615,0,1,1,0,1.23Zm0,0" transform="translate(-61.509 -115.942)"/><path d="M377.928,248.1H335.59a.616.616,0,0,1,0-1.231h42.338a.616.616,0,0,1,0,1.231Zm0,0" transform="translate(-61.509 -85.528)"/><path d="M355.443,332.452H335.59a.616.616,0,1,1,0-1.231h19.853a.616.616,0,0,1,0,1.231Zm0,0" transform="translate(-61.509 -149.602)"/><path d="M355.443,376.765H335.59a.616.616,0,1,1,0-1.231h19.853a.616.616,0,0,1,0,1.231Zm0,0" transform="translate(-61.509 -183.263)"/><path d="M355.443,421.077H335.59a.616.616,0,0,1,0-1.231h19.853a.616.616,0,0,1,0,1.231Zm0,0" transform="translate(-61.509 -216.923)"/><path class="a" d="M467.885,360.067a.613.613,0,0,1-.435-.18l-2.1-2.1a.616.616,0,1,1,.87-.87l1.667,1.668,4.078-4.075a.616.616,0,1,1,.871.87l-4.514,4.513a.613.613,0,0,1-.435.177Zm0,0" transform="translate(-160.399 -167.147)"/><path class="a" d="M448.8,343.925a3.132,3.132,0,0,1-2.51-1.244,1.928,1.928,0,0,0-1.79-.738,3.154,3.154,0,0,1-3.55-3.55,1.93,1.93,0,0,0-.743-1.791,3.154,3.154,0,0,1,0-5.02,1.928,1.928,0,0,0,.743-1.79,3.154,3.154,0,0,1,3.55-3.551,1.93,1.93,0,0,0,1.79-.742,3.155,3.155,0,0,1,5.02,0,1.932,1.932,0,0,0,1.79.742,3.155,3.155,0,0,1,3.551,3.551,1.928,1.928,0,0,0,.738,1.79,3.152,3.152,0,0,1,0,5.02,1.93,1.93,0,0,0-.738,1.791,3.154,3.154,0,0,1-3.551,3.55,1.929,1.929,0,0,0-1.79.738,3.132,3.132,0,0,1-2.51,1.244Zm-4.043-3.234a3.167,3.167,0,0,1,2.513,1.244,1.923,1.923,0,0,0,3.061,0,3.153,3.153,0,0,1,2.934-1.216,1.923,1.923,0,0,0,2.164-2.164,3.164,3.164,0,0,1,1.216-2.935,1.922,1.922,0,0,0,0-3.061,3.165,3.165,0,0,1-1.216-2.934,1.924,1.924,0,0,0-2.164-2.166,3.154,3.154,0,0,1-2.934-1.215,1.924,1.924,0,0,0-3.062,0,3.158,3.158,0,0,1-2.934,1.215,1.925,1.925,0,0,0-2.165,2.165,3.161,3.161,0,0,1-1.217,2.935,1.925,1.925,0,0,0,0,3.061,3.163,3.163,0,0,1,1.217,2.935,1.924,1.924,0,0,0,2.165,2.164,3.174,3.174,0,0,1,.423-.028Zm0,0" transform="translate(-140.498 -144.311)"/><path class="a" d="M468.353,404.224a.616.616,0,0,1-.431-.175l-4-3.909-4,3.91a.616.616,0,0,1-1.046-.441V393.346a.616.616,0,0,1,1.231,0v8.8l3.39-3.309a.616.616,0,0,1,.862,0l3.381,3.306v-8.8a.616.616,0,0,1,1.231,0v10.262a.616.616,0,0,1-.615.616Zm0,0" transform="translate(-155.625 -196.325)"/></g></svg>