<svg xmlns="http://www.w3.org/2000/svg" width="79.995" height="80" viewBox="0 0 79.995 80"><defs><style>.a{fill:#007c4f;}</style></defs><g transform="translate(-256.473 -132.198)"><path d="M301.684,212.2l-10.53-.014a.615.615,0,0,1-.6-.492l-1.945-9.561a30.421,30.421,0,0,1-7.815-3.246l-8.137,5.361a.614.614,0,0,1-.774-.08l-7.441-7.46a.616.616,0,0,1-.077-.775l5.383-8.122a30.43,30.43,0,0,1-3.224-7.825l-9.557-1.972a.614.614,0,0,1-.492-.6l.014-10.528a.614.614,0,0,1,.492-.6l9.561-1.946a30.442,30.442,0,0,1,3.246-7.815l-5.361-8.139a.615.615,0,0,1,.079-.774l7.46-7.44a.615.615,0,0,1,.775-.078l8.123,5.383a30.425,30.425,0,0,1,7.826-3.224l1.969-9.555a.616.616,0,0,1,.6-.493l10.53.014a.617.617,0,0,1,.6.493l1.945,9.56a30.478,30.478,0,0,1,7.815,3.246l8.137-5.361a.617.617,0,0,1,.775.079l7.44,7.46a.616.616,0,0,1,.077.775l-5.383,8.123a30.409,30.409,0,0,1,3.224,7.825l9.556,1.969a.616.616,0,0,1,.492.6l-.014,10.528a.616.616,0,0,1-.492.6l-9.558,1.949a30.441,30.441,0,0,1-3.246,7.815l5.361,8.137a.617.617,0,0,1-.079.775l-7.46,7.44a.616.616,0,0,1-.775.078l-8.123-5.383a30.441,30.441,0,0,1-7.826,3.224l-1.969,9.555a.613.613,0,0,1-.6.492Zm-10.027-1.244,9.524.014,1.948-9.443a.616.616,0,0,1,.457-.473,29.2,29.2,0,0,0,8.195-3.376.616.616,0,0,1,.658.014l8.026,5.318,6.749-6.73-5.3-8.042a.617.617,0,0,1-.012-.659,29.218,29.218,0,0,0,3.4-8.184.615.615,0,0,1,.475-.456l9.447-1.922.014-9.525-9.443-1.948a.616.616,0,0,1-.473-.457,29.166,29.166,0,0,0-3.376-8.194.617.617,0,0,1,.014-.659l5.319-8.026-6.733-6.749-8.041,5.3a.617.617,0,0,1-.658.012,29.242,29.242,0,0,0-8.184-3.4.616.616,0,0,1-.456-.475l-1.924-9.447-9.524-.014-1.948,9.443a.613.613,0,0,1-.457.473,29.233,29.233,0,0,0-8.195,3.376.616.616,0,0,1-.658-.014l-8.026-5.317-6.749,6.73,5.3,8.041a.617.617,0,0,1,.012.659,29.217,29.217,0,0,0-3.4,8.184.615.615,0,0,1-.475.456l-9.447,1.923-.014,9.524,9.443,1.948a.616.616,0,0,1,.473.457A29.165,29.165,0,0,0,271,187.507a.617.617,0,0,1-.014.659l-5.319,8.026,6.731,6.749,8.042-5.3a.617.617,0,0,1,.658-.012,29.269,29.269,0,0,0,8.184,3.4.617.617,0,0,1,.456.475Zm0,0"/><path d="M348.413,247.743h-.033a23.544,23.544,0,0,1,.033-47.088h.033a23.544,23.544,0,0,1-.033,47.088Zm0-45.857a22.313,22.313,0,1,0-.029,44.626h.029a22.313,22.313,0,1,0,.029-44.626Zm0,0" transform="translate(-51.943 -52.001)"/><path class="a" d="M403.427,263.21a.6.6,0,0,0-.85,0l-7.291,7.291V249.036a.6.6,0,1,0-1.2,0V270.5l-7.291-7.291a.6.6,0,0,0-.85.85l8.317,8.316a.6.6,0,0,0,.85,0l8.316-8.316A.6.6,0,0,0,403.427,263.21Z" transform="translate(-98.215 -88.296)"/></g></svg>