<svg xmlns="http://www.w3.org/2000/svg" width="28.3" height="28.3" viewBox="0 0 28.3 28.3"><defs><style>.a{fill:#ccc;stroke:#ccc;stroke-width:0.3px;}</style></defs><path class="a" d="M266.371,130.66s0-.006,0-.008a14.369,14.369,0,0,0-.107-1.748.4.4,0,0,0-.014-.076,14,14,0,0,0-2.654-6.539l0-.008a13.6,13.6,0,0,0-1.042-1.239l-.06-.063q-.091-.094-.183-.187a14,14,0,0,0-2.075-1.723c-.206-.14-.416-.272-.627-.4l-.006,0q-.179-.108-.361-.21l-.008,0q-.182-.1-.367-.2l-.006,0q-.186-.1-.375-.189l0,0q-.19-.092-.381-.178h0q-.192-.086-.387-.166h0q-.194-.08-.39-.154h0q-.195-.074-.391-.141l-.008,0q-.194-.066-.39-.127l-.014,0q-.192-.059-.386-.113l-.022-.006q-.189-.052-.38-.1l-.032-.008q-.186-.045-.373-.085l-.043-.009q-.182-.039-.365-.072l-.054-.01q-.177-.032-.355-.059l-.066-.01q-.173-.026-.347-.047l-.075-.009c-.113-.013-.227-.025-.341-.036l-.083-.008q-.168-.015-.336-.025l-.089-.006c-.111-.006-.222-.011-.333-.014l-.091,0c-.111,0-.222,0-.334,0h-.091c-.112,0-.225,0-.337.006l-.087,0c-.115,0-.229.01-.344.016l-.081,0c-.117.008-.235.017-.352.028l-.071.006c-.121.012-.242.025-.363.04l-.061.007q-.187.024-.374.053l-.05.007q-.191.03-.382.066l-.041.007q-.194.037-.387.079l-.028.006-.009,0q-.189.042-.378.09l-.046.011c-.119.03-.238.063-.357.1l-.065.018c-.109.032-.218.065-.327.1l-.091.028c-.1.032-.2.066-.3.1l-.117.041c-.089.032-.178.066-.267.1l-.141.054-.063.024c-.062.025-.123.051-.185.077l-.152.063c-.08.034-.16.07-.239.106l-.153.069c-.079.037-.158.075-.236.113l-.148.073c-.079.04-.157.081-.235.122l-.142.075c-.079.043-.157.087-.235.131l-.136.077c-.078.046-.156.092-.233.139l-.131.08c-.077.048-.154.1-.23.147l-.127.083c-.075.05-.15.1-.224.153l-.126.088c-.073.052-.144.1-.216.157l-.127.095c-.069.052-.138.106-.206.16l-.13.1c-.065.053-.13.106-.194.16l-.134.113c-.061.052-.121.1-.18.158l-.14.125c-.056.051-.111.1-.166.155l-.145.138c-.051.05-.1.1-.152.15s-.1.1-.15.152l-.138.145c-.052.055-.1.11-.154.166l-.125.14c-.053.06-.106.119-.158.18l-.114.135c-.054.064-.107.128-.159.193l-.1.13c-.053.068-.107.136-.159.205l-.095.127c-.053.072-.106.143-.157.216l-.088.126c-.051.074-.1.148-.153.224l-.083.128c-.049.076-.1.152-.146.229l-.08.131c-.047.077-.094.154-.139.232-.026.045-.052.091-.078.136-.044.078-.088.155-.13.234-.026.047-.05.1-.076.143-.041.078-.082.156-.121.234-.025.049-.049.1-.073.149-.038.078-.076.156-.113.236-.024.051-.046.1-.069.153-.036.079-.071.159-.106.239-.022.051-.042.1-.064.153s-.052.123-.077.185l-.024.063c-.018.047-.036.094-.054.142-.034.089-.067.177-.1.267-.014.039-.027.079-.041.118-.034.1-.068.2-.1.3-.01.03-.019.061-.029.092-.034.109-.068.217-.1.327l-.018.066c-.033.118-.066.237-.1.356l-.011.047q-.047.188-.089.378l0,.009c0,.01,0,.019-.006.029q-.042.193-.079.386l-.008.042q-.035.191-.066.382l-.007.05q-.029.186-.053.373c0,.02,0,.041-.007.061-.015.121-.028.241-.04.362,0,.024,0,.048-.006.072-.011.117-.02.234-.028.352,0,.027,0,.054,0,.081-.007.114-.012.229-.016.343,0,.029,0,.059,0,.088,0,.112-.005.224-.006.337,0,.031,0,.061,0,.092,0,.111,0,.222,0,.333,0,.031,0,.061,0,.092,0,.111.008.222.015.333,0,.03,0,.059.006.089q.011.168.025.336c0,.028.005.056.008.083q.016.17.036.34c0,.025.006.05.009.076q.022.174.047.347l.01.065q.027.178.059.356l.01.054q.034.183.072.364l.009.043q.04.187.085.373l.008.032q.047.191.1.38l.006.022q.054.194.113.386l0,.014q.061.2.127.39l0,.008q.067.2.141.391l0,0q.074.2.154.39v0q.08.195.166.387v0q.086.192.178.382l0,0q.092.189.189.375l0,.006q.1.185.2.368l0,.007q.1.182.211.362l0,.005c.128.212.26.422.4.628a13.991,13.991,0,0,0,1.723,2.075q.092.092.187.183l.063.06A13.622,13.622,0,0,0,244,141.876l.007,0a14,14,0,0,0,6.539,2.654.4.4,0,0,0,.076.014,14.385,14.385,0,0,0,1.752.107,13.954,13.954,0,0,0,9.614-3.825l.02-.019q.134-.127.265-.258A13.958,13.958,0,0,0,266.371,130.66Zm-4.667,9.329-.027.026a16.089,16.089,0,0,0-3.833-2,27.59,27.59,0,0,0,.924-6.958h6.8A13.159,13.159,0,0,1,261.7,139.989Zm-8.932,3.831v-5.958a15.323,15.323,0,0,1,4.063.658C255.879,141.495,254.41,143.532,252.772,143.82Zm0-6.758v-6.006h5.2a26.748,26.748,0,0,1-.905,6.7A16.123,16.123,0,0,0,252.772,137.062Zm0-6.806V124.25a16.111,16.111,0,0,0,4.291-.693,26.748,26.748,0,0,1,.906,6.7Zm0-6.806v-5.958c1.638.288,3.107,2.324,4.062,5.3A15.318,15.318,0,0,1,252.772,123.45Zm-.8-5.958v5.958a15.318,15.318,0,0,1-4.062-.659C248.865,119.816,250.334,117.78,251.972,117.492Zm0,6.759v6.006h-5.2a26.747,26.747,0,0,1,.906-6.7A16.111,16.111,0,0,0,251.972,124.25Zm0,6.805v6.006a16.12,16.12,0,0,0-4.292.691,26.746,26.746,0,0,1-.905-6.7Zm0,6.806v5.958c-1.638-.288-3.107-2.325-4.063-5.3A15.323,15.323,0,0,1,251.972,137.862Zm5.644.919a15.288,15.288,0,0,1,3.464,1.792,13.157,13.157,0,0,1-6.256,3.054A10.927,10.927,0,0,0,257.616,138.781Zm7.948-8.525h-6.795a27.587,27.587,0,0,0-.924-6.959,16.112,16.112,0,0,0,3.83-2A13.2,13.2,0,0,1,265.564,130.256ZM257.252,118.4a13.179,13.179,0,0,1,3.825,2.343,15.324,15.324,0,0,1-3.462,1.789,10.951,10.951,0,0,0-2.78-4.834A13.2,13.2,0,0,1,257.252,118.4Zm-13.526,2.289.131-.113.061-.051a13.191,13.191,0,0,1,5.991-2.829,10.95,10.95,0,0,0-2.78,4.834,15.322,15.322,0,0,1-3.462-1.789Zm-1.487,1.516.05-.06.113-.132.092-.1.092-.1q.092-.1.187-.2l.114-.119.062-.065.091-.091.027-.027a16.112,16.112,0,0,0,3.831,2,27.587,27.587,0,0,0-.924,6.959h-6.791A13.2,13.2,0,0,1,242.239,122.2Zm-2.126,13.334a13.177,13.177,0,0,1-.929-4.481h6.79a27.585,27.585,0,0,0,.924,6.958,16.084,16.084,0,0,0-3.831,2A13.177,13.177,0,0,1,240.113,135.537Zm3.553,5.035a15.288,15.288,0,0,1,3.462-1.791,10.934,10.934,0,0,0,2.79,4.844A13.2,13.2,0,0,1,243.665,140.572Z" transform="translate(-238.221 -116.506)"/></svg>