<svg xmlns="http://www.w3.org/2000/svg" width="28.3" height="25.004" viewBox="0 0 28.3 25.004"><defs><style>.a{fill:#ccc;stroke:#ccc;stroke-width:0.3px;}</style></defs><path class="a" d="M266.378,153.395v-7.981c0-.014,0-.028,0-.042v-6.939a.4.4,0,0,0-.454-.4l-9.015,1.229-9.01-1.229h0l-.034,0h-.038l-.025,0h-.008l-9.066,1.236a.4.4,0,0,0-.346.4v22.666a.4.4,0,0,0,.454.4l9.012-1.229,9.013,1.229.041,0h.012a.394.394,0,0,0,.054,0l9.068-1.236a.4.4,0,0,0,.346-.4v-7.7Zm-20.81-.013a2.4,2.4,0,1,0-4.708.829l-1.681.3V147.32l8.266-1.459v7.188Zm-3.793.981a.421.421,0,0,0-.034-.067,1.6,1.6,0,1,1,3.027-.527.429.429,0,0,0-.009.074,1.6,1.6,0,0,1-2.984.52Zm14.735-7.855-8.265-1.459v-6.157l8.265,1.127Zm-8.265-.646,8.265,1.459v7.187l-8.265-1.458Zm9.066,1.459,1.561-.277a2.375,2.375,0,0,0,1.906,1.706v2.835a.4.4,0,1,0,.8,0V148.75a2.4,2.4,0,0,0,2-2.366c0-.057,0-.114-.006-.17l2.006-.353v7.188l-8.266,1.459Zm2.388-1.548a1.6,1.6,0,0,1,3.026.214l0,.012a1.6,1.6,0,1,1-3.144.523s0-.007,0-.011h0A1.6,1.6,0,0,1,259.7,145.772Zm5.878-.723-2.2.387a2.4,2.4,0,0,0-4.6.811l-1.471.261v-6.489l8.266-1.126Zm-18.133-6.157v6.157l-8.266,1.459v-6.489Zm-8.266,16.429,2.029-.358a2.4,2.4,0,0,0,1.571,1v2.835a.4.4,0,1,0,.8,0V155.96a2.406,2.406,0,0,0,1.92-1.754l1.946-.345v6.888l-8.266,1.127Zm9.066-1.459,8.265,1.458v6.558l-8.265-1.127Zm17.333,6.89-8.266,1.126V155.32l8.266-1.459v6.89Z" transform="translate(-238.229 -137.882)"/></svg>