<svg width="123" height="123" viewBox="0 0 123 123" fill="none" xmlns="http://www.w3.org/2000/svg">
<g clip-path="url(#clip0_10_5)">
<path d="M37.95 4.66C45.19 1.66 53.13 0 61.44 0C78.4 0 93.77 6.88 104.88 18C110.54 23.66 115.1 30.43 118.22 37.95C121.22 45.19 122.88 53.13 122.88 61.44C122.88 78.4 116 93.77 104.88 104.88C99.22 110.54 92.45 115.1 84.93 118.22C77.69 121.22 69.75 122.88 61.44 122.88C53.13 122.88 45.19 121.22 37.95 118.22C30.42 115.1 23.66 110.54 18 104.88C12.34 99.22 7.77 92.46 4.66 84.93C1.66 77.69 0 69.75 0 61.44C0 53.13 1.66 45.19 4.66 37.95C7.77 30.42 12.34 23.66 18 18C23.65 12.34 30.42 7.77 37.95 4.66ZM50 47.13C47.52 44.61 47.55 40.55 50.08 38.08C52.6 35.6 56.66 35.63 59.13 38.16L77.8 57.13C80.25 59.63 80.25 63.62 77.8 66.11L59.49 84.72C57.01 87.24 52.96 87.27 50.44 84.8C47.92 82.32 47.89 78.27 50.36 75.75L64.26 61.62L50 47.13ZM42.86 16.55C36.93 19.01 31.58 22.62 27.1 27.1C22.62 31.58 19.01 36.93 16.55 42.86C14.18 48.57 12.88 54.85 12.88 61.44C12.88 68.03 14.19 74.3 16.55 80.02C19.01 85.95 22.62 91.3 27.1 95.78C31.58 100.26 36.93 103.87 42.86 106.33C48.58 108.7 54.85 110 61.44 110C68.03 110 74.3 108.69 80.02 106.33C85.95 103.87 91.3 100.26 95.78 95.78C100.26 91.3 103.87 85.96 106.33 80.02C108.7 74.31 110 68.03 110 61.44C110 54.85 108.69 48.58 106.33 42.86C103.87 36.93 100.26 31.58 95.78 27.1C91.3 22.62 85.95 19.01 80.02 16.55C74.31 14.18 68.03 12.88 61.44 12.88C54.85 12.88 48.58 14.19 42.86 16.55Z" fill="#555"/>
</g>
<defs>
<clipPath id="clip0_10_5">
<rect width="122.88" height="122.88" fill="#555"/>
</clipPath>
</defs>
</svg>
