<svg width="123" height="123" viewBox="0 0 123 123" fill="none" xmlns="http://www.w3.org/2000/svg">
<g clip-path="url(#clip0_10_2)">
<path d="M84.93 4.66C77.69 1.66 69.75 0 61.44 0C44.48 0 29.11 6.88 18 18C12.34 23.66 7.78 30.43 4.66 37.95C1.66 45.19 7.62939e-06 53.13 7.62939e-06 61.44C7.62939e-06 78.4 6.88001 93.77 18 104.88C23.66 110.54 30.43 115.1 37.95 118.22C45.19 121.22 53.13 122.88 61.44 122.88C69.75 122.88 77.69 121.22 84.93 118.22C92.46 115.1 99.22 110.54 104.88 104.88C110.54 99.22 115.11 92.46 118.22 84.93C121.22 77.69 122.88 69.75 122.88 61.44C122.88 53.13 121.22 45.19 118.22 37.95C115.11 30.42 110.54 23.66 104.88 18C99.23 12.34 92.46 7.77 84.93 4.66ZM72.88 47.13C75.36 44.61 75.33 40.55 72.8 38.08C70.28 35.6 66.22 35.63 63.75 38.16L45.08 57.13C42.63 59.63 42.63 63.62 45.08 66.11L63.39 84.72C65.87 87.24 69.92 87.27 72.44 84.8C74.96 82.32 74.99 78.27 72.52 75.75L58.62 61.62L72.88 47.13ZM80.02 16.55C85.95 19.01 91.3 22.62 95.78 27.1C100.26 31.58 103.87 36.93 106.33 42.86C108.7 48.57 110 54.85 110 61.44C110 68.03 108.69 74.3 106.33 80.02C103.87 85.95 100.26 91.3 95.78 95.78C91.3 100.26 85.95 103.87 80.02 106.33C74.3 108.7 68.03 110 61.44 110C54.85 110 48.58 108.69 42.86 106.33C36.93 103.87 31.58 100.26 27.1 95.78C22.62 91.3 19.01 85.96 16.55 80.02C14.18 74.31 12.88 68.03 12.88 61.44C12.88 54.85 14.19 48.58 16.55 42.86C19.01 36.93 22.62 31.58 27.1 27.1C31.58 22.62 36.93 19.01 42.86 16.55C48.57 14.18 54.85 12.88 61.44 12.88C68.03 12.88 74.3 14.19 80.02 16.55Z" fill="#555"/>
</g>
<defs>
<clipPath id="clip0_10_2">
<rect width="122.88" height="122.88" fill="#555" transform="matrix(-1 0 0 1 122.88 0)"/>
</clipPath>
</defs>
</svg>
