<svg xmlns="http://www.w3.org/2000/svg" width="24.5" height="24.5" viewBox="0 0 24.5 24.5">
  <g id="_ICON_검색" data-name="[ICON] 검색" transform="translate(0.25 0.25)">
    <path id="icon_-_검색" data-name="icon - 검색" d="M10.248,20.511l-7.14-7.14A9.752,9.752,0,0,0,2.945-.236,9.677,9.677,0,0,0-3.943-3.089,9.677,9.677,0,0,0-10.83-.236a9.676,9.676,0,0,0-2.853,6.887,9.676,9.676,0,0,0,2.853,6.887,9.677,9.677,0,0,0,6.887,2.853A9.672,9.672,0,0,0,2.777,13.7l7.139,7.139a.234.234,0,0,0,.331-.331ZM-3.943,15.923A9.211,9.211,0,0,1-10.5,13.207a9.211,9.211,0,0,1-2.716-6.556A9.211,9.211,0,0,1-10.5.1,9.211,9.211,0,0,1-3.943-2.62,9.211,9.211,0,0,1,2.613.1a9.282,9.282,0,0,1,0,13.112A9.211,9.211,0,0,1-3.943,15.923Z" transform="translate(13.683 3.089)" fill="#8b8b8b" stroke="#8b8b8b" stroke-width="0.5"/>
  </g>
</svg>
