<svg xmlns="http://www.w3.org/2000/svg" width="33" height="33" viewBox="0 0 33 33">
  <g id="_ICON_검색" data-name="[ICON] 검색" transform="translate(0.5 0.5)">
    <path id="icon_-_검색" data-name="icon - 검색" d="M18.225,28.378l-9.52-9.52A13,13,0,0,0,8.488.715,12.9,12.9,0,0,0-.7-3.089,12.9,12.9,0,0,0-9.879.715a12.9,12.9,0,0,0-3.8,9.183,12.9,12.9,0,0,0,3.8,9.183A12.9,12.9,0,0,0-.7,22.886,12.9,12.9,0,0,0,8.264,19.3l9.519,9.519a.312.312,0,1,0,.442-.442ZM-.7,22.261A12.281,12.281,0,0,1-9.437,18.64,12.281,12.281,0,0,1-13.058,9.9,12.281,12.281,0,0,1-9.437,1.157,12.281,12.281,0,0,1-.7-2.464,12.281,12.281,0,0,1,8.046,1.157a12.377,12.377,0,0,1,0,17.483A12.281,12.281,0,0,1-.7,22.261Z" transform="translate(13.683 3.089)" stroke="#000" stroke-width="1"/>
  </g>
</svg>
