<svg width="18" height="18" viewBox="0 0 18 18" fill="none" xmlns="http://www.w3.org/2000/svg">
<path d="M16.9562 16.7356L12.1956 11.9749C13.3634 10.7467 14.0055 9.11111 13.9852 7.41648C13.9649 5.72185 13.2838 4.10211 12.0869 2.90226C11.4852 2.29725 10.7694 1.81761 9.98109 1.49108C9.19276 1.16455 8.34749 0.997636 7.49422 0.999988C6.64105 0.997724 5.79591 1.16469 5.0077 1.49121C4.21949 1.81773 3.50386 2.29733 2.90223 2.90226C2.29728 3.50387 1.81766 4.21949 1.49113 5.00771C1.16461 5.79592 0.997662 6.64107 0.999962 7.49424C0.997662 8.34741 1.16461 9.19257 1.49113 9.98078C1.81766 10.769 2.29728 11.4846 2.90223 12.0862C3.50386 12.6912 4.21949 13.1708 5.0077 13.4973C5.79591 13.8238 6.64105 13.9908 7.49422 13.9885C9.16371 13.9929 10.7699 13.3498 11.9749 12.1942L16.7349 16.9543C16.7641 16.9835 16.8038 17 16.8452 17C16.8866 17 16.9263 16.9835 16.9556 16.9543C16.9848 16.925 17.0013 16.8853 17.0013 16.8439C17.0013 16.8025 16.9848 16.7628 16.9556 16.7336L16.9562 16.7356ZM7.49422 13.6765C6.68194 13.6787 5.87727 13.5198 5.12682 13.209C4.37637 12.8981 3.69503 12.4415 3.12226 11.8655C2.54637 11.2928 2.08979 10.6116 1.77894 9.86128C1.4681 9.11095 1.30916 8.30641 1.31134 7.49424C1.3096 6.68263 1.46875 5.87873 1.77958 5.129C2.09042 4.37927 2.54677 3.69858 3.12226 3.12629C3.69481 2.54984 4.37605 2.09271 5.12651 1.7814C5.87697 1.47009 6.68175 1.31078 7.49422 1.3127C8.30658 1.31087 9.11122 1.47022 9.86157 1.78153C10.6119 2.09284 11.293 2.54992 11.8655 3.12629C13.0231 4.28653 13.6733 5.85859 13.6733 7.49758C13.6733 9.13657 13.0231 10.7086 11.8655 11.8689C11.2925 12.4442 10.6112 12.9001 9.86087 13.2104C9.11055 13.5207 8.30615 13.6791 7.49422 13.6765V13.6765Z" fill="black" stroke="black" stroke-width="0.5"/>
</svg>
