<svg width="26" height="25" viewBox="0 0 26 25" fill="none" xmlns="http://www.w3.org/2000/svg">
<path d="M24.931 23.85L17.791 16.71C19.5424 14.868 20.5055 12.415 20.4751 9.87337C20.4446 7.33179 19.4231 4.90252 17.628 3.103C16.7255 2.19562 15.6521 1.47625 14.4698 0.986534C13.2874 0.496815 12.0197 0.246474 10.74 0.250001C9.46041 0.246606 8.19288 0.497012 7.01073 0.986727C5.82858 1.47644 4.75529 2.19574 3.85297 3.103C2.94567 4.00529 2.22634 5.07857 1.73662 6.26072C1.2469 7.44288 0.996524 8.71043 0.999974 9.99C0.996524 11.2696 1.2469 12.5371 1.73662 13.7193C2.22634 14.9014 2.94567 15.9747 3.85297 16.877C4.75529 17.7843 5.82858 18.5036 7.01073 18.9933C8.19288 19.483 9.46041 19.7334 10.74 19.73C13.2439 19.7367 15.6527 18.772 17.46 17.039L24.599 24.178C24.6429 24.2219 24.7024 24.2466 24.7645 24.2466C24.8265 24.2466 24.8861 24.2219 24.93 24.178C24.9739 24.1341 24.9985 24.0746 24.9985 24.0125C24.9985 23.9504 24.9739 23.8909 24.93 23.847L24.931 23.85ZM10.74 19.262C9.52172 19.2654 8.3149 19.0271 7.18938 18.5609C6.06386 18.0947 5.042 17.4098 4.18297 16.546C3.31926 15.6871 2.63448 14.6654 2.16828 13.5401C1.70207 12.4147 1.46371 11.2081 1.46697 9.99C1.46437 8.77276 1.70306 7.56707 2.16924 6.44264C2.63542 5.3182 3.31986 4.29732 4.18297 3.439C5.04167 2.57444 6.06338 1.88886 7.18892 1.42196C8.31445 0.955058 9.52144 0.716126 10.74 0.719001C11.9583 0.716258 13.1651 0.955255 14.2905 1.42215C15.4158 1.88905 16.4374 2.57456 17.296 3.439C19.0322 5.17911 20.0073 7.53687 20.0073 9.995C20.0073 12.4531 19.0322 14.8109 17.296 16.551C16.4366 17.4138 15.4148 18.0977 14.2894 18.563C13.1641 19.0283 11.9577 19.2659 10.74 19.262V19.262Z" fill="#007C4F" stroke="#007C4F" stroke-width="0.5"/>
</svg>
