<svg width="25" height="25" viewBox="0 0 25 25" fill="none" xmlns="http://www.w3.org/2000/svg">
<path d="M24.181 23.85L17.041 16.71C18.7924 14.868 19.7555 12.415 19.7251 9.87337C19.6946 7.33178 18.6731 4.90252 16.878 3.103C15.9755 2.19562 14.9021 1.47625 13.7198 0.986532C12.5374 0.496813 11.2697 0.246472 9.98997 0.249999C8.71041 0.246604 7.44288 0.49701 6.26073 0.986725C5.07858 1.47644 4.00529 2.19574 3.10297 3.103C2.19567 4.00528 1.47634 5.07857 0.986623 6.26072C0.496904 7.44288 0.246524 8.71043 0.249974 9.99C0.246524 11.2696 0.496904 12.5371 0.986623 13.7193C1.47634 14.9014 2.19567 15.9747 3.10297 16.877C4.00529 17.7843 5.07858 18.5036 6.26073 18.9933C7.44288 19.483 8.71041 19.7334 9.98997 19.73C12.4939 19.7367 14.9027 18.772 16.71 17.039L23.849 24.178C23.8929 24.2219 23.9524 24.2466 24.0145 24.2466C24.0765 24.2466 24.1361 24.2219 24.18 24.178C24.2239 24.1341 24.2485 24.0746 24.2485 24.0125C24.2485 23.9504 24.2239 23.8909 24.18 23.847L24.181 23.85ZM9.98997 19.262C8.77172 19.2654 7.5649 19.0271 6.43938 18.5609C5.31386 18.0947 4.292 17.4098 3.43297 16.546C2.56926 15.6871 1.88448 14.6654 1.41828 13.5401C0.952074 12.4147 0.713708 11.2081 0.716974 9.99C0.71437 8.77276 0.953057 7.56707 1.41924 6.44264C1.88542 5.3182 2.56986 4.29732 3.43297 3.439C4.29167 2.57444 5.31338 1.88885 6.43892 1.42196C7.56445 0.955056 8.77144 0.716124 9.98997 0.718999C11.2083 0.716257 12.4151 0.955253 13.5405 1.42215C14.6658 1.88904 15.6874 2.57456 16.546 3.439C18.2822 5.17911 19.2573 7.53687 19.2573 9.995C19.2573 12.4531 18.2822 14.8109 16.546 16.551C15.6866 17.4138 14.6648 18.0977 13.5394 18.563C12.4141 19.0283 11.2077 19.2659 9.98997 19.262V19.262Z" fill="#8B8B8B" stroke="#8B8B8B" stroke-width="0.5"/>
</svg>
