<svg width="25" height="26" viewBox="0 0 25 26" fill="none" xmlns="http://www.w3.org/2000/svg">
<path d="M1.21188 7.15762C3.26338 3.48407 7.18964 1 11.6961 1C18.3235 1 23.6961 6.37258 23.6961 13C23.6961 19.6274 18.3235 25 11.6961 25C7.18964 25 3.26338 22.5159 1.21188 18.8424" stroke="white" stroke-linecap="round"/>
<path d="M1 1.7579V7.3158H6.5579" stroke="white" stroke-linecap="round"/>
<path d="M17.1408 18.0119L14.1341 15.0052C14.8716 14.2295 15.2772 13.1965 15.2644 12.1262C15.2516 11.0559 14.8214 10.0329 14.0654 9.2751C13.6854 8.89299 13.2334 8.59005 12.7355 8.38383C12.2376 8.1776 11.7037 8.07218 11.1648 8.07366C10.626 8.07223 10.0922 8.17768 9.59439 8.38391C9.09657 8.59013 8.6446 8.89304 8.26462 9.2751C7.88254 9.65506 7.57962 10.107 7.3734 10.6049C7.16717 11.1027 7.06173 11.6365 7.06319 12.1753C7.06173 12.7141 7.16717 13.2479 7.3734 13.7457C7.57962 14.2436 7.88254 14.6955 8.26462 15.0755C8.6446 15.4576 9.09657 15.7605 9.59439 15.9667C10.0922 16.1729 10.626 16.2784 11.1648 16.2769C12.2192 16.2797 13.2336 15.8735 13.9947 15.1437L17.001 18.15C17.0195 18.1685 17.0446 18.1789 17.0707 18.1789C17.0969 18.1789 17.1219 18.1685 17.1404 18.15C17.1589 18.1316 17.1693 18.1065 17.1693 18.0803C17.1693 18.0542 17.1589 18.0291 17.1404 18.0107L17.1408 18.0119ZM11.1648 16.0799C10.6518 16.0813 10.1436 15.9809 9.66962 15.7846C9.19565 15.5883 8.76534 15.2999 8.40359 14.9361C8.03987 14.5744 7.7515 14.1442 7.55517 13.6703C7.35885 13.1964 7.25847 12.6882 7.25985 12.1753C7.25875 11.6627 7.35926 11.155 7.55558 10.6815C7.75189 10.2079 8.04012 9.77804 8.40359 9.41659C8.7652 9.05251 9.19545 8.7638 9.66943 8.56719C10.1434 8.37057 10.6517 8.26995 11.1648 8.27116C11.6779 8.27001 12.1861 8.37065 12.66 8.56727C13.1339 8.76388 13.5641 9.05256 13.9256 9.41659C14.6568 10.1494 15.0674 11.1423 15.0674 12.1774C15.0674 13.2126 14.6568 14.2054 13.9256 14.9382C13.5638 15.3016 13.1334 15.5895 12.6595 15.7855C12.1857 15.9815 11.6776 16.0815 11.1648 16.0799V16.0799Z" fill="white" stroke="white"/>
</svg>
