<svg width="26" height="26" viewBox="0 0 26 26" fill="none" xmlns="http://www.w3.org/2000/svg">
<path d="M24.931 24.6L17.791 17.46C19.5424 15.618 20.5055 13.165 20.4751 10.6234C20.4446 8.08179 19.4231 5.65252 17.628 3.853C16.7255 2.94562 15.6521 2.22625 14.4698 1.73653C13.2874 1.24682 12.0197 0.996474 10.74 1C9.46041 0.996606 8.19288 1.24701 7.01073 1.73673C5.82858 2.22644 4.75529 2.94574 3.85297 3.853C2.94567 4.75529 2.22634 5.82857 1.73662 7.01072C1.2469 8.19288 0.996524 9.46043 0.999974 10.74C0.996524 12.0196 1.2469 13.2871 1.73662 14.4693C2.22634 15.6514 2.94567 16.7247 3.85297 17.627C4.75529 18.5343 5.82858 19.2536 7.01073 19.7433C8.19288 20.233 9.46041 20.4834 10.74 20.48C13.2439 20.4867 15.6527 19.522 17.46 17.789L24.599 24.928C24.6429 24.9719 24.7024 24.9966 24.7645 24.9966C24.8265 24.9966 24.8861 24.9719 24.93 24.928C24.9739 24.8841 24.9985 24.8246 24.9985 24.7625C24.9985 24.7004 24.9739 24.6409 24.93 24.597L24.931 24.6ZM10.74 20.012C9.52172 20.0154 8.3149 19.7771 7.18938 19.3109C6.06386 18.8447 5.042 18.1598 4.18297 17.296C3.31926 16.4371 2.63448 15.4154 2.16828 14.2901C1.70207 13.1647 1.46371 11.9581 1.46697 10.74C1.46437 9.52276 1.70306 8.31707 2.16924 7.19264C2.63542 6.0682 3.31986 5.04732 4.18297 4.189C5.04167 3.32444 6.06338 2.63886 7.18892 2.17196C8.31445 1.70506 9.52144 1.46613 10.74 1.469C11.9583 1.46626 13.1651 1.70526 14.2905 2.17215C15.4158 2.63905 16.4374 3.32456 17.296 4.189C19.0322 5.92911 20.0073 8.28687 20.0073 10.745C20.0073 13.2031 19.0322 15.5609 17.296 17.301C16.4366 18.1638 15.4148 18.8477 14.2894 19.313C13.1641 19.7783 11.9577 20.0159 10.74 20.012V20.012Z" fill="white" stroke="white" stroke-width="0.5"/>
</svg>
