<svg xmlns="http://www.w3.org/2000/svg" width="20" height="18.571" viewBox="0 0 20 18.571">
  <g id="다각형_2" data-name="다각형 2" fill="#ccc">
    <path d="M 14.93684959411621 17.38284873962402 C 14.86468982696533 17.38285827636719 14.79281044006348 17.36625862121582 14.72319030761719 17.33351898193359 L 10.63842964172363 15.41227912902832 C 10.44003009796143 15.31895923614502 10.21926021575928 15.26962852478027 10 15.26962852478027 C 9.780739784240723 15.26962852478027 9.559969902038574 15.31895923614502 9.361570358276367 15.41227912902832 L 5.276810169219971 17.33351898193359 C 5.207210063934326 17.36625862121582 5.135310173034668 17.38284873962402 5.063089847564697 17.38284873962402 C 4.921679973602295 17.38284873962402 4.779890060424805 17.31696891784668 4.683810234069824 17.20661926269531 C 4.617000102996826 17.1298885345459 4.542799949645996 16.99918937683105 4.568759918212891 16.81229972839355 L 5.169079780578613 12.48949909210205 C 5.232530117034912 12.0325984954834 5.077710151672363 11.56307888031006 4.754930019378662 11.23353862762451 L 1.683439970016479 8.09778881072998 C 1.4930100440979 7.903368949890137 1.536829948425293 7.681588649749756 1.564509987831116 7.595258712768555 C 1.592190027236938 7.508928775787354 1.685500025749207 7.303009033203125 1.95346999168396 7.255558967590332 L 6.366380214691162 6.474248886108398 C 6.815189838409424 6.394778728485107 7.19871997833252 6.120258808135986 7.418650150299072 5.721078872680664 L 9.562080383300781 1.830908894538879 C 9.690730094909668 1.597408890724182 9.911190032958984 1.572198867797852 10 1.572198867797852 C 10.08880996704102 1.572198867797852 10.30926990509033 1.597408890724182 10.43791961669922 1.830908894538879 L 12.58133983612061 5.721088886260986 C 12.80128955841064 6.120278835296631 13.18482971191406 6.39478874206543 13.633620262146 6.474238872528076 L 18.04652976989746 7.255558967590332 C 18.31450080871582 7.303009033203125 18.40781021118164 7.508928775787354 18.43548965454102 7.595258712768555 C 18.46316909790039 7.681588649749756 18.50699043273926 7.903368949890137 18.31656074523926 8.09778881072998 L 15.24507999420166 11.23353862762451 C 14.92228984832764 11.56307888031006 14.76747035980225 12.0325984954834 14.83092021942139 12.48949909210205 L 15.43124008178711 16.81229972839355 C 15.45718955993652 16.9991283416748 15.3830099105835 17.12980842590332 15.31620025634766 17.20653915405273 C 15.22010040283203 17.31692886352539 15.07828044891357 17.38283920288086 14.93684959411621 17.38284873962402 Z" stroke="none"/>
    <path d="M 10 2.072198867797852 L 7.856579780578613 5.962358474731445 C 7.563329696655273 6.49461841583252 7.051939964294434 6.860638618469238 6.453550338745117 6.966588973999023 L 2.040645599365234 7.747907638549805 C 2.040645599365234 7.747909545898438 2.040643692016602 7.74791145324707 2.040639877319336 7.747908592224121 L 5.112130165100098 10.88366889953613 C 5.542499542236328 11.32305908203125 5.748929977416992 11.94908905029297 5.66431999206543 12.55826950073242 L 5.06400203704834 16.88106346130371 C 5.064002990722656 16.88106536865234 5.064003944396973 16.88106536865234 5.064000129699707 16.88106918334961 L 9.148750305175781 14.95982933044434 C 9.413299560546875 14.83539867401123 9.707650184631348 14.76962852478027 10 14.76962852478027 C 10.29234981536865 14.76962852478027 10.58670043945312 14.83539867401123 10.85124015808105 14.95982933044434 L 14.93597030639648 16.88105392456055 C 14.93597793579102 16.88105010986328 14.93598651885986 16.88104248046875 14.93599987030029 16.88107872009277 L 14.33565998077393 12.55824851989746 C 14.25107002258301 11.94905853271484 14.45750999450684 11.32304954528809 14.88788032531738 10.88365840911865 L 17.9593563079834 7.747912406921387 C 17.9593563079834 7.74791145324707 17.95935440063477 7.747909545898438 17.95936012268066 7.747908592224121 L 13.54644012451172 6.966588973999023 C 12.94807052612305 6.860638618469238 12.43668937683105 6.49462890625 12.14342021942139 5.96237850189209 L 10 2.072198867797852 M 10 1.072193145751953 C 10.34289455413818 1.072193145751953 10.68579006195068 1.244668960571289 10.87584972381592 1.589618682861328 L 13.0192699432373 5.479799270629883 C 13.16518020629883 5.744608879089355 13.42306995391846 5.92918872833252 13.72077941894531 5.981899261474609 L 18.13369941711426 6.763218879699707 C 18.92543983459473 6.903398513793945 19.23638916015625 7.873249053955078 18.67374992370605 8.447658538818359 L 15.60227012634277 11.58340835571289 C 15.38553047180176 11.80468940734863 15.28355979919434 12.11391830444336 15.3261604309082 12.42071914672852 L 15.92648983001709 16.7435188293457 C 16.03570938110352 17.52997016906738 15.22887802124023 18.1239185333252 14.51037979125977 17.78596878051758 L 10.42562007904053 15.8647289276123 C 10.15603923797607 15.73792839050293 9.843960762023926 15.73792839050293 9.574379920959473 15.8647289276123 L 5.489620208740234 17.78596878051758 C 4.771116256713867 18.1239185333252 3.964290618896484 17.52997016906738 4.07351016998291 16.7435188293457 L 4.673830032348633 12.42071914672852 C 4.716440200805664 12.11391830444336 4.614469528198242 11.80468940734863 4.397729873657227 11.58340835571289 L 1.326250076293945 8.447658538818359 C 0.76361083984375 7.873249053955078 1.074560165405273 6.903398513793945 1.866300582885742 6.763218879699707 L 6.279210090637207 5.981899261474609 C 6.576930046081543 5.92918872833252 6.834819793701172 5.744608879089355 6.980719566345215 5.479799270629883 L 9.124150276184082 1.589618682861328 C 9.314209938049316 1.244668960571289 9.657105445861816 1.072193145751953 10 1.072193145751953 Z" stroke="none" fill="#ccc"/>
  </g>
</svg>
