<svg xmlns="http://www.w3.org/2000/svg" width="16" height="15.273" viewBox="0 0 16 15.273">
  <g id="다각형_6" data-name="다각형 6" fill="none">
    <path d="M7.119,1.644a1,1,0,0,1,1.763,0l1.491,2.781a1,1,0,0,0,.7.511l3.1.565a1,1,0,0,1,.545,1.674L12.538,9.467a1,1,0,0,0-.267.824l.424,3.138a1,1,0,0,1-1.426,1.034l-2.834-1.37a1,1,0,0,0-.871,0l-2.834,1.37A1,1,0,0,1,3.3,13.428l.424-3.138a1,1,0,0,0-.267-.824L1.279,7.175A1,1,0,0,1,1.823,5.5l3.1-.565a1,1,0,0,0,.7-.511Z" stroke="none"/>
    <path d="M 8.000003814697266 3.175204277038574 L 6.949910163879395 5.134358406066895 C 6.587949752807617 5.809707641601562 5.947990417480469 6.275728225708008 5.194109916687012 6.412958145141602 L 3.003748893737793 6.811612129211426 L 4.547719955444336 8.431987762451172 C 5.074130058288574 8.984437942504883 5.317460060119629 9.735008239746094 5.215310096740723 10.49127769470215 L 4.915947914123535 12.70718002319336 L 6.911789894104004 11.7421875 C 7.249070167541504 11.5791187286377 7.625370025634766 11.49291801452637 8 11.49291801452637 C 8.37460994720459 11.49291801452637 8.750889778137207 11.57910823822021 9.088230133056641 11.74219799041748 L 11.08404731750488 12.70717430114746 L 10.78470039367676 10.49129867553711 C 10.68251991271973 9.735027313232422 10.92584991455078 8.984428405761719 11.4522705078125 8.431998252868652 L 12.99625205993652 6.811610221862793 L 10.80586051940918 6.412947654724121 C 10.05200958251953 6.275728225708008 9.412050247192383 5.809707641601562 9.050100326538086 5.134378433227539 L 8.000003814697266 3.175204277038574 M 8 1.116802215576172 C 8.346428871154785 1.116802215576172 8.692854881286621 1.292662620544434 8.881380081176758 1.644388198852539 L 10.37216949462891 4.42576789855957 C 10.51611995697021 4.694348335266113 10.77468013763428 4.882628440856934 11.0744800567627 4.937197685241699 L 14.1765604019165 5.501788139343262 C 14.95932960510254 5.644258499145508 15.27031993865967 6.599448204040527 14.72146987915039 7.175457954406738 L 12.5382194519043 9.466748237609863 C 12.32878017425537 9.686538696289062 12.23054027557373 9.989587783813477 12.27118968963623 10.29045867919922 L 12.69511985778809 13.42848777770996 C 12.80185031890869 14.21847820281982 11.98652076721191 14.80965805053711 11.26882934570312 14.46264839172363 L 8.43528938293457 13.09262847900391 C 8.160320281982422 12.95968818664551 7.839680671691895 12.95968818664551 7.564709663391113 13.09262847900391 L 4.731169700622559 14.46264839172363 C 4.013485908508301 14.80965805053711 3.198149681091309 14.21847820281982 3.304880142211914 13.42848777770996 L 3.72881031036377 10.29045867919922 C 3.769450187683105 9.989587783813477 3.671210289001465 9.686538696289062 3.461779594421387 9.466748237609863 L 1.278530120849609 7.175457954406738 C 0.729680061340332 6.599448204040527 1.040670394897461 5.644258499145508 1.823430061340332 5.501788139343262 L 4.925519943237305 4.937197685241699 C 5.225319862365723 4.882628440856934 5.483880043029785 4.694348335266113 5.627829551696777 4.42576789855957 L 7.118619918823242 1.644397735595703 C 7.307140350341797 1.292668342590332 7.653571128845215 1.116802215576172 8 1.116802215576172 Z" stroke="none" fill="#007c4f"/>
  </g>
</svg>
