<svg xmlns="http://www.w3.org/2000/svg" width="29" height="27" viewBox="0 0 29 27">
  <g id="다각형_2" data-name="다각형 2" fill="none">
    <path d="M11.871,4.784a3,3,0,0,1,5.258,0l1.392,2.533a3,3,0,0,0,2.1,1.509l2.788.495a3,3,0,0,1,1.622,5.05L23.152,16.3a3,3,0,0,0-.826,2.508l.375,2.7a3,3,0,0,1-4.251,3.125l-2.67-1.259a3,3,0,0,0-2.559,0l-2.67,1.259A3,3,0,0,1,6.3,21.512l.375-2.7A3,3,0,0,0,5.848,16.3L3.965,14.372a3,3,0,0,1,1.622-5.05l2.788-.495a3,3,0,0,0,2.1-1.509Z" stroke="none"/>
    <path d="M 14.49999904632568 4.229242324829102 C 13.7592191696167 4.229242324829102 13.10397911071777 4.616832733154297 12.74721908569336 5.266042709350586 L 11.35524940490723 7.799081802368164 C 10.76941871643066 8.865142822265625 9.746519088745117 9.598503112792969 8.548839569091797 9.811113357543945 L 5.761178970336914 10.30598258972168 C 5.018339157104492 10.43785285949707 4.437158584594727 10.94543266296387 4.206508636474609 11.66375160217285 C 3.975868225097656 12.38208293914795 4.152919769287109 13.13312244415283 4.68012809753418 13.67279243469238 L 6.562929153442383 15.60011291503906 C 7.420698165893555 16.4781322479248 7.832258224487305 17.72822189331055 7.663848876953125 18.9441032409668 L 7.289218902587891 21.64885330200195 C 7.208499908447266 22.23163223266602 7.373138427734375 22.79262161254883 7.752809524536133 23.22850227355957 C 8.140359878540039 23.67343139648438 8.692499160766602 23.92861175537109 9.267669677734375 23.92861175537109 C 9.559099197387695 23.92861175537109 9.84699821472168 23.86252212524414 10.12338829040527 23.73218154907227 L 12.79381942749023 22.47283172607422 C 13.32390880584717 22.22283172607422 13.91389942169189 22.0906925201416 14.49999904632568 22.0906925201416 C 15.08608913421631 22.0906925201416 15.67606925964355 22.22283172607422 16.20615768432617 22.47282218933105 L 18.87660980224609 23.73218154907227 C 19.15298843383789 23.86252212524414 19.44089889526367 23.92861175537109 19.73233795166016 23.92861175537109 C 20.30743026733398 23.92861175537109 20.85955047607422 23.67341232299805 21.24712944030762 23.22845268249512 C 21.62682914733887 22.79254150390625 21.79148864746094 22.23156356811523 21.71077919006348 21.64884185791016 L 21.33615875244141 18.9441032409668 C 21.16773986816406 17.72823333740234 21.57929992675781 16.47814178466797 22.43705940246582 15.60011291503906 L 24.31986999511719 13.67279243469238 C 24.84708023071289 13.13312244415283 25.02412986755371 12.38208293914795 24.79348945617676 11.66375160217285 C 24.56283950805664 10.94543266296387 23.98165893554688 10.43785285949707 23.23881912231445 10.30598258972168 L 20.45114898681641 9.811101913452148 C 19.25345993041992 9.598482131958008 18.23056793212891 8.865133285522461 17.64474868774414 7.799081802368164 L 16.25277900695801 5.266042709350586 C 15.89601898193359 4.616832733154297 15.24077892303467 4.229242324829102 14.49999904632568 4.229242324829102 M 14.49999904632568 3.229242324829102 C 15.52971172332764 3.229242324829102 16.55942535400391 3.747642517089844 17.12916946411133 4.784442901611328 L 18.52113914489746 7.317481994628906 C 18.95830917358398 8.113021850585938 19.732177734375 8.66783332824707 20.62594985961914 8.826501846313477 L 23.41360855102539 9.321372985839844 C 25.7862491607666 9.742572784423828 26.71910858154297 12.64787292480469 25.03518867492676 14.37159252166748 L 23.15237808227539 16.29891204833984 C 22.50426864624023 16.96233367919922 22.19944953918457 17.88822174072266 22.32669830322266 18.80690383911133 L 22.70131874084473 21.51165199279785 C 23.02824783325195 23.87204360961914 20.60533905029297 25.65306282043457 18.45006942749023 24.63665199279785 L 15.77961921691895 23.37729263305664 C 14.96932792663574 22.99516296386719 14.03067016601562 22.99516296386719 13.22037887573242 23.37729263305664 L 10.54992866516113 24.63665199279785 C 8.394659042358398 25.65306091308594 5.971748352050781 23.87203407287598 6.298679351806641 21.51165199279785 L 6.673309326171875 18.80690383911133 C 6.800548553466797 17.88822174072266 6.495729446411133 16.96233367919922 5.847618103027344 16.29891204833984 L 3.964809417724609 14.37159252166748 C 2.280889511108398 12.64787292480469 3.213748931884766 9.742572784423828 5.586389541625977 9.321372985839844 L 8.374048233032227 8.826501846313477 C 9.267818450927734 8.667842864990234 10.04168891906738 8.113021850585938 10.47885894775391 7.317481994628906 L 11.87082862854004 4.784442901611328 C 12.44057464599609 3.747642517089844 13.47028636932373 3.229242324829102 14.49999904632568 3.229242324829102 Z" stroke="none" fill="#007c4f"/>
  </g>
</svg>
