<svg xmlns="http://www.w3.org/2000/svg" width="16" height="15.273" viewBox="0 0 16 15.273">
  <g id="다각형_2" data-name="다각형 2" fill="#007c4f">
    <path d="M 11.70471954345703 13.81418800354004 C 11.66833019256592 13.81418800354004 11.63253974914551 13.80543804168701 11.59529972076416 13.78742790222168 L 8.761759757995605 12.41740798950195 C 8.525650024414062 12.30325794219971 8.262240409851074 12.24292755126953 8 12.24292755126953 C 7.737760066986084 12.24292755126953 7.474349975585938 12.30325794219971 7.238259792327881 12.41739845275879 L 4.404699802398682 13.78742790222168 C 4.367459774017334 13.80543804168701 4.331649780273438 13.81418800354004 4.295219898223877 13.81418800354004 C 4.225080013275146 13.81418800354004 4.153759956359863 13.78047847747803 4.104410171508789 13.72402763366699 C 4.056920051574707 13.669677734375 4.037980079650879 13.60402774810791 4.048130035400391 13.52889823913574 L 4.472060203552246 10.39086818695068 C 4.543580055236816 9.861488342285156 4.373250007629395 9.336077690124512 4.004740238189697 8.949357986450195 L 1.821509957313538 6.658088207244873 C 1.731969952583313 6.564117908477783 1.747529983520508 6.461207866668701 1.764780044555664 6.408237934112549 C 1.782029986381531 6.355257987976074 1.830029964447021 6.262907981872559 1.957739949226379 6.239667892456055 L 5.059820175170898 5.67507791519165 C 5.587530136108398 5.579018115997314 6.035500049591064 5.252798080444336 6.288869857788086 4.780067920684814 L 7.779650211334229 1.998708009719849 C 7.841169834136963 1.883938074111938 7.944109916687012 1.86680805683136 8 1.86680805683136 C 8.055890083312988 1.86680805683136 8.158829689025879 1.883938074111938 8.22035026550293 1.998708009719849 L 9.711139678955078 4.780077934265137 C 9.964500427246094 5.252798080444336 10.4124698638916 5.579018115997314 10.94017028808594 5.67507791519165 L 14.04226970672607 6.239667892456055 C 14.16996955871582 6.262907981872559 14.21796989440918 6.355257987976074 14.23521995544434 6.408227920532227 C 14.25247001647949 6.461207866668701 14.26803016662598 6.564117908477783 14.17848968505859 6.658088207244873 L 11.99524021148682 8.94937801361084 C 11.62675952911377 9.336077690124512 11.45643997192383 9.861477851867676 11.52793979644775 10.39084815979004 L 11.95186996459961 13.52889823913574 C 11.96201992034912 13.60398769378662 11.94307994842529 13.66961765289307 11.89558029174805 13.72396755218506 C 11.84622001647949 13.78045845031738 11.77486991882324 13.81417846679688 11.70471954345703 13.81418800354004 Z" stroke="none"/>
    <path d="M 8.000003814697266 3.175204277038574 L 6.949910163879395 5.134358406066895 C 6.587949752807617 5.809707641601562 5.947990417480469 6.275728225708008 5.194109916687012 6.412958145141602 L 3.003748893737793 6.811612129211426 L 4.547719955444336 8.431987762451172 C 5.074130058288574 8.984437942504883 5.317460060119629 9.735008239746094 5.215310096740723 10.49127769470215 L 4.915947914123535 12.70718002319336 L 6.911789894104004 11.7421875 C 7.249070167541504 11.5791187286377 7.625370025634766 11.49291801452637 8 11.49291801452637 C 8.37460994720459 11.49291801452637 8.750889778137207 11.57910823822021 9.088230133056641 11.74219799041748 L 11.08404731750488 12.70717430114746 L 10.78470039367676 10.49129867553711 C 10.68251991271973 9.735027313232422 10.92584991455078 8.984428405761719 11.4522705078125 8.431998252868652 L 12.99625205993652 6.811610221862793 L 10.80586051940918 6.412947654724121 C 10.05200958251953 6.275728225708008 9.412050247192383 5.809707641601562 9.050100326538086 5.134378433227539 L 8.000003814697266 3.175204277038574 M 8 1.116802215576172 C 8.346428871154785 1.116802215576172 8.692854881286621 1.292662620544434 8.881380081176758 1.644388198852539 L 10.37216949462891 4.42576789855957 C 10.51611995697021 4.694348335266113 10.77468013763428 4.882628440856934 11.0744800567627 4.937197685241699 L 14.1765604019165 5.501788139343262 C 14.95932960510254 5.644258499145508 15.27031993865967 6.599448204040527 14.72146987915039 7.175457954406738 L 12.5382194519043 9.466748237609863 C 12.32878017425537 9.686538696289062 12.23054027557373 9.989587783813477 12.27118968963623 10.29045867919922 L 12.69511985778809 13.42848777770996 C 12.80185031890869 14.21847820281982 11.98652076721191 14.80965805053711 11.26882934570312 14.46264839172363 L 8.43528938293457 13.09262847900391 C 8.160320281982422 12.95968818664551 7.839680671691895 12.95968818664551 7.564709663391113 13.09262847900391 L 4.731169700622559 14.46264839172363 C 4.013485908508301 14.80965805053711 3.198149681091309 14.21847820281982 3.304880142211914 13.42848777770996 L 3.72881031036377 10.29045867919922 C 3.769450187683105 9.989587783813477 3.671210289001465 9.686538696289062 3.461779594421387 9.466748237609863 L 1.278530120849609 7.175457954406738 C 0.729680061340332 6.599448204040527 1.040670394897461 5.644258499145508 1.823430061340332 5.501788139343262 L 4.925519943237305 4.937197685241699 C 5.225319862365723 4.882628440856934 5.483880043029785 4.694348335266113 5.627829551696777 4.42576789855957 L 7.118619918823242 1.644397735595703 C 7.307140350341797 1.292668342590332 7.653571128845215 1.116802215576172 8 1.116802215576172 Z" stroke="none" fill="#007c4f"/>
  </g>
</svg>
